<svg xmlns="http://www.w3.org/2000/svg" xmlns:xlink="http://www.w3.org/1999/xlink" viewBox="0 0 458 218.4">
    <style>
        .st0{fill:#00a2c9;stroke:#0099cf}.st1{fill:#fff}.st2{fill:#828282}.st3{fill:#888}.st4{fill:#919190}.st5{fill:#989898}.st6{fill:#a0a0a0}.st7{fill:#a9a9a9}.st8{fill:#b1b2b1}.st9{fill:#b9b9b9}.st10{fill:#c1c0c0}.st11{fill:#c8c8c8}.st12{fill:#d1d1d1}.st13{fill:#d8d9d8}.st14{fill:#e0e0e0}.st15{fill:#e8e8e8}.st16{fill:#f0f0f0}.st17{fill:#f7f8f8}.st18{stroke:#828282;stroke-width:7.9308}.st18,.st19,.st20,.st21,.st22,.st23{clip-path:url(#SVGID_2_);fill:none;stroke-linejoin:round}.st19{stroke:#888;stroke-width:7.4351}.st20{stroke:#919190;stroke-width:6.9394}.st21{stroke:#989898;stroke-width:6.4437}.st22{stroke:#a0a0a0;stroke-width:5.9481}.st23{stroke:#a9a9a9;stroke-width:5.4524}.st24{stroke:#b1b2b1;stroke-width:4.9567}.st24,.st25,.st26,.st27,.st28,.st29,.st30,.st31,.st32,.st33{clip-path:url(#SVGID_2_);fill:none;stroke-linejoin:round}.st25{stroke:#b9b9b9;stroke-width:4.461}.st26{stroke:#c1c0c0;stroke-width:3.9654}.st27{stroke:#c8c8c8;stroke-width:3.4697}.st28{stroke:#d1d1d1;stroke-width:2.974}.st29{stroke:#d8d9d8;stroke-width:2.4783}.st30{stroke:#e0e0e0;stroke-width:1.9827}.st31{stroke:#e8e8e8;stroke-width:1.487}.st32{stroke:#f0f0f0;stroke-width:.9913}.st33{stroke:#f7f8f8;stroke-width:.4957}.st34{fill:#fff}.st34,.st35,.st36{stroke:#010101;stroke-width:1.3674}.st35{fill:none}.st36{fill:#010101}.st37{stroke:#828282;stroke-width:7.9308}.st37,.st38,.st39,.st40,.st41,.st42{clip-path:url(#SVGID_4_);fill:none;stroke-linejoin:round}.st38{stroke:#888;stroke-width:7.4351}.st39{stroke:#919190;stroke-width:6.9394}.st40{stroke:#989898;stroke-width:6.4437}.st41{stroke:#a0a0a0;stroke-width:5.9481}.st42{stroke:#a9a9a9;stroke-width:5.4524}.st43{stroke:#b1b2b1;stroke-width:4.9567}.st43,.st44,.st45,.st46,.st47,.st48,.st49,.st50,.st51,.st52{clip-path:url(#SVGID_4_);fill:none;stroke-linejoin:round}.st44{stroke:#b9b9b9;stroke-width:4.461}.st45{stroke:#c1c0c0;stroke-width:3.9654}.st46{stroke:#c8c8c8;stroke-width:3.4697}.st47{stroke:#d1d1d1;stroke-width:2.974}.st48{stroke:#d8d9d8;stroke-width:2.4783}.st49{stroke:#e0e0e0;stroke-width:1.9827}.st50{stroke:#e8e8e8;stroke-width:1.487}.st51{stroke:#f0f0f0;stroke-width:.9913}.st52{stroke:#f7f8f8;stroke-width:.4957}.st53{fill:none;stroke:#010101}.st54,.st55{fill:#fff;stroke:#0099cf}.st55{fill:none}.st56{fill:#0099cf}.st57{fill:#010101}.st58{fill:#ee3030}
    </style>
    <path class="st0" d="M231.8 122.3L319 62.9"/>
    <path class="st1" d="M21.8 55.3h77.6v65.5H21.8z"/>
    <path class="st2" d="M21 121.7h79.3V54.5H21v67.2zm.8-66.4h77.6v65.5H21.8V55.3z"/>
    <path class="st3" d="M101.1 53.6h-81v68.9h81V53.6zm-.8 68.1H21V54.5h79.3v67.2z"/>
    <path class="st4" d="M19.3 123.4H102V52.8H19.3v70.6zm.8-69.8h81v68.9h-81V53.6z"/>
    <path class="st5" d="M102.8 51.9H18.4v72.3h84.4V51.9zm-.8 71.5H19.3V52.8H102v70.6z"/>
    <path class="st6" d="M17.6 125.1h86.1v-74H17.6v74zm.8-73.2h84.4v72.3H18.4V51.9z"/>
    <path class="st7" d="M104.5 50.2H16.7v75.7h87.8V50.2zm-.8 74.9H17.6v-74h86.1v74z"/>
    <path class="st8" d="M15.9 126.8h89.5V49.4H15.9v77.4zm.8-76.6h87.8v75.7H16.7V50.2z"/>
    <path class="st9" d="M106.2 48.5H15v79.1h91.2V48.5zm-.8 78.3H15.9V49.4h89.5v77.4z"/>
    <path class="st10" d="M14.2 128.5h92.9V47.6H14.2v80.9zm.8-80h91.2v79.1H15V48.5z"/>
    <path class="st11" d="M108 46.8H13.3v82.6H108V46.8zm-.9 81.7H14.2V47.6h92.9v80.9z"/>
    <path class="st12" d="M12.4 130.2h96.4V45.9H12.4v84.3zm.9-83.4H108v82.6H13.3V46.8z"/>
    <path class="st13" d="M109.7 45.1H11.6v86h98.1v-86zm-.9 85.1H12.4V45.9h96.4v84.3z"/>
    <path class="st14" d="M10.7 131.9h99.8V44.2H10.7v87.7zm.9-86.8h98.1v86H11.6v-86z"/>
    <path class="st15" d="M111.4 43.4H9.9v89.4h101.5V43.4zm-.9 88.5H10.7V44.2h99.8v87.7z"/>
    <path class="st16" d="M9.3 133.6H112c.1 0 .2-.1.2-.3V42.8c0-.2-.1-.3-.2-.3H9.3c-.1 0-.2.1-.2.3v90.5c-.1.2 0 .3.2.3zm.6-90.2h101.5v89.4H9.9V43.4z"/>
    <path class="st17" d="M9.3 134.5H112c.6 0 1.1-.5 1.1-1.2V42.8c0-.6-.5-1.2-1.1-1.2H9.3c-.6 0-1.1.5-1.1 1.2v90.5c0 .7.5 1.2 1.1 1.2zM9 42.8c0-.2.1-.3.2-.3H112c.1 0 .2.1.2.3v90.5c0 .2-.1.3-.2.3H9.3c-.1 0-.2-.1-.2-.3V42.8z"/>
    <defs>
        <path id="SVGID_1_" d="M106 135.5H14.3c-.5 0-1 .4-1 1V164c0 .5.4 1 1 1h5.1c-.5 0-1 .4-1 1v2.8c0 .5.4 1 1 1h81.8c.5 0 1-.4 1-1V166c0-.5-.4-1-1-1h4.8c.5 0 1-.4 1-1v-27.4c0-.6-.5-1.1-1-1.1z"/>
    </defs>
    <clipPath id="SVGID_2_">
        <use xlink:href="#SVGID_1_" overflow="visible"/>
    </clipPath>
    <path class="st18" d="M106 135.5H14.3c-.5 0-1 .4-1 1V164c0 .5.4 1 1 1h5.1c-.5 0-1 .4-1 1v2.8c0 .5.4 1 1 1h81.8c.5 0 1-.4 1-1V166c0-.5-.4-1-1-1h4.8c.5 0 1-.4 1-1v-27.4c0-.6-.5-1.1-1-1.1z"/>
    <path class="st19" d="M106 135.5H14.3c-.5 0-1 .4-1 1V164c0 .5.4 1 1 1h5.1c-.5 0-1 .4-1 1v2.8c0 .5.4 1 1 1h81.8c.5 0 1-.4 1-1V166c0-.5-.4-1-1-1h4.8c.5 0 1-.4 1-1v-27.4c0-.6-.5-1.1-1-1.1z"/>
    <path class="st20" d="M106 135.5H14.3c-.5 0-1 .4-1 1V164c0 .5.4 1 1 1h5.1c-.5 0-1 .4-1 1v2.8c0 .5.4 1 1 1h81.8c.5 0 1-.4 1-1V166c0-.5-.4-1-1-1h4.8c.5 0 1-.4 1-1v-27.4c0-.6-.5-1.1-1-1.1z"/>
    <path class="st21" d="M106 135.5H14.3c-.5 0-1 .4-1 1V164c0 .5.4 1 1 1h5.1c-.5 0-1 .4-1 1v2.8c0 .5.4 1 1 1h81.8c.5 0 1-.4 1-1V166c0-.5-.4-1-1-1h4.8c.5 0 1-.4 1-1v-27.4c0-.6-.5-1.1-1-1.1z"/>
    <path class="st22" d="M106 135.5H14.3c-.5 0-1 .4-1 1V164c0 .5.4 1 1 1h5.1c-.5 0-1 .4-1 1v2.8c0 .5.4 1 1 1h81.8c.5 0 1-.4 1-1V166c0-.5-.4-1-1-1h4.8c.5 0 1-.4 1-1v-27.4c0-.6-.5-1.1-1-1.1z"/>
    <path class="st23" d="M106 135.5H14.3c-.5 0-1 .4-1 1V164c0 .5.4 1 1 1h5.1c-.5 0-1 .4-1 1v2.8c0 .5.4 1 1 1h81.8c.5 0 1-.4 1-1V166c0-.5-.4-1-1-1h4.8c.5 0 1-.4 1-1v-27.4c0-.6-.5-1.1-1-1.1z"/>
    <path class="st24" d="M106 135.5H14.3c-.5 0-1 .4-1 1V164c0 .5.4 1 1 1h5.1c-.5 0-1 .4-1 1v2.8c0 .5.4 1 1 1h81.8c.5 0 1-.4 1-1V166c0-.5-.4-1-1-1h4.8c.5 0 1-.4 1-1v-27.4c0-.6-.5-1.1-1-1.1z"/>
    <path class="st25" d="M106 135.5H14.3c-.5 0-1 .4-1 1V164c0 .5.4 1 1 1h5.1c-.5 0-1 .4-1 1v2.8c0 .5.4 1 1 1h81.8c.5 0 1-.4 1-1V166c0-.5-.4-1-1-1h4.8c.5 0 1-.4 1-1v-27.4c0-.6-.5-1.1-1-1.1z"/>
    <path class="st26" d="M106 135.5H14.3c-.5 0-1 .4-1 1V164c0 .5.4 1 1 1h5.1c-.5 0-1 .4-1 1v2.8c0 .5.4 1 1 1h81.8c.5 0 1-.4 1-1V166c0-.5-.4-1-1-1h4.8c.5 0 1-.4 1-1v-27.4c0-.6-.5-1.1-1-1.1z"/>
    <path class="st27" d="M106 135.5H14.3c-.5 0-1 .4-1 1V164c0 .5.4 1 1 1h5.1c-.5 0-1 .4-1 1v2.8c0 .5.4 1 1 1h81.8c.5 0 1-.4 1-1V166c0-.5-.4-1-1-1h4.8c.5 0 1-.4 1-1v-27.4c0-.6-.5-1.1-1-1.1z"/>
    <path class="st28" d="M106 135.5H14.3c-.5 0-1 .4-1 1V164c0 .5.4 1 1 1h5.1c-.5 0-1 .4-1 1v2.8c0 .5.4 1 1 1h81.8c.5 0 1-.4 1-1V166c0-.5-.4-1-1-1h4.8c.5 0 1-.4 1-1v-27.4c0-.6-.5-1.1-1-1.1z"/>
    <path class="st29" d="M106 135.5H14.3c-.5 0-1 .4-1 1V164c0 .5.4 1 1 1h5.1c-.5 0-1 .4-1 1v2.8c0 .5.4 1 1 1h81.8c.5 0 1-.4 1-1V166c0-.5-.4-1-1-1h4.8c.5 0 1-.4 1-1v-27.4c0-.6-.5-1.1-1-1.1z"/>
    <path class="st30" d="M106 135.5H14.3c-.5 0-1 .4-1 1V164c0 .5.4 1 1 1h5.1c-.5 0-1 .4-1 1v2.8c0 .5.4 1 1 1h81.8c.5 0 1-.4 1-1V166c0-.5-.4-1-1-1h4.8c.5 0 1-.4 1-1v-27.4c0-.6-.5-1.1-1-1.1z"/>
    <path class="st31" d="M106 135.5H14.3c-.5 0-1 .4-1 1V164c0 .5.4 1 1 1h5.1c-.5 0-1 .4-1 1v2.8c0 .5.4 1 1 1h81.8c.5 0 1-.4 1-1V166c0-.5-.4-1-1-1h4.8c.5 0 1-.4 1-1v-27.4c0-.6-.5-1.1-1-1.1z"/>
    <path class="st32" d="M106 135.5H14.3c-.5 0-1 .4-1 1V164c0 .5.4 1 1 1h5.1c-.5 0-1 .4-1 1v2.8c0 .5.4 1 1 1h81.8c.5 0 1-.4 1-1V166c0-.5-.4-1-1-1h4.8c.5 0 1-.4 1-1v-27.4c0-.6-.5-1.1-1-1.1z"/>
    <path class="st33" d="M106 135.5H14.3c-.5 0-1 .4-1 1V164c0 .5.4 1 1 1h5.1c-.5 0-1 .4-1 1v2.8c0 .5.4 1 1 1h81.8c.5 0 1-.4 1-1V166c0-.5-.4-1-1-1h4.8c.5 0 1-.4 1-1v-27.4c0-.6-.5-1.1-1-1.1z"/>
    <path class="st1" d="M26.8 158.7h68.4c1-1.2 2.1-2.3 3.5-3.1v-7.1H23v6.9c1.4.8 2.7 1.9 3.8 3.3z"/>
    <path class="st2" d="M26.4 159.5h69.2c1-1.4 2.4-2.6 3.9-3.5v-8.5H22.1v8.2c1.7 1 3.1 2.3 4.3 3.8zM23 148.4h75.7v7.1c-1.3.8-2.5 1.9-3.5 3.1H26.8c-1.1-1.3-2.4-2.5-3.8-3.4v-6.8z"/>
    <path class="st3" d="M25.9 160.4H96c1.1-1.6 2.6-2.9 4.3-3.9v-9.8H21.2v9.6c1.9.9 3.5 2.3 4.7 4.1zm-3.8-12.8h77.4v8.5c-1.5.9-2.8 2.1-3.9 3.5H26.4c-1.1-1.5-2.6-2.8-4.3-3.7v-8.3z"/>
    <path class="st4" d="M25.5 161.2h71.1c1.1-1.8 2.8-3.3 4.7-4.2v-11.2H20.4v11c2.1 1 3.9 2.5 5.1 4.4zm-4.3-14.5h79.1v9.8c-1.7.9-3.2 2.3-4.3 3.9H25.9c-1.2-1.7-2.8-3.1-4.7-4.1v-9.6z"/>
    <path class="st5" d="M25 162.1h72c1.1-2 2.9-3.6 5.1-4.5V145H19.5v12.5c2.4.8 4.3 2.5 5.5 4.6zm-4.6-16.3h80.8V157c-1.9.9-3.6 2.4-4.7 4.2h-71c-1.2-1.9-3-3.5-5.1-4.4v-11z"/>
    <path class="st6" d="M24.4 162.9h73.1c1.1-2.2 3-3.9 5.4-4.8v-14H18.7V158c2.5.8 4.6 2.6 5.7 4.9zM19.5 145H102v12.6c-2.1.9-3.9 2.5-5.1 4.5H25c-1.2-2.1-3.1-3.8-5.4-4.6V145z"/>
    <path class="st7" d="M23.9 163.8h74.2c1-2.4 3.1-4.3 5.7-5v-15.5h-86v15.4c2.8.6 5 2.5 6.1 5.1zm-5.2-19.7h84.2v14c-2.4.8-4.3 2.5-5.4 4.8H24.4c-1.1-2.3-3.2-4.1-5.8-4.9v-13.9z"/>
    <path class="st8" d="M23.3 164.6h75.4c.9-2.6 3.2-4.7 6-5.1v-17.1H17v17c2.9.4 5.4 2.5 6.3 5.2zm-5.5-21.3h85.9v15.5c-2.6.7-4.7 2.5-5.7 5H23.9c-1.1-2.5-3.3-4.5-6.1-5.1v-15.4z"/>
    <path class="st9" d="M22.7 165.5h76.7c.7-2.9 3.1-5 6.2-5.2v-18.7H16.1v18.7c3.2 0 5.9 2.2 6.6 5.2zM17 142.4h87.6v17.1c-2.8.5-5.1 2.5-6 5.1H23.3c-.9-2.8-3.4-4.8-6.3-5.2v-17z"/>
    <path class="st10" d="M21.9 166.4H100c.4-3 2.9-5.3 5.9-5.3h.4v-20.4h-91v20.4h.7c3.1 0 5.6 2.3 5.9 5.3zm-5.8-24.8h89.4v18.7c-3 .2-5.5 2.4-6.2 5.2H22.7c-.7-3-3.4-5.2-6.5-5.3v-18.6z"/>
    <path class="st11" d="M21.1 167.1v.1h79.7v-.1c0-2.8 2.3-5.1 5.1-5.1h1.2v-22.1H14.4V162H16c2.8-.1 5.1 2.2 5.1 5.1zm-5.8-26.4h91.1v20.4h-.4c-3.1 0-5.6 2.3-5.9 5.3H21.9c-.4-3-2.9-5.3-5.9-5.3h-.7v-20.4z"/>
    <path class="st12" d="M20.3 167.1c0 .3 0 .7-.1 1h81.6c-.1-.3-.1-.6-.1-1 0-2.4 1.9-4.3 4.3-4.3h2.1V139H13.6v23.8H16c2.4 0 4.3 1.9 4.3 4.3zm-5.9-27.2h92.8V162H106c-2.8 0-5.1 2.3-5.1 5.1v.1H21.1v-.1c0-2.8-2.3-5.1-5.1-5.1h-1.6v-22.1z"/>
    <path class="st13" d="M19.4 167.1c0 .7-.2 1.3-.5 1.8h84.2c-.3-.5-.5-1.2-.5-1.8 0-1.9 1.5-3.4 3.4-3.4h2.9v-25.5H12.7v25.5H16c1.9 0 3.4 1.5 3.4 3.4zM13.6 139H108v23.8h-2c-2.4 0-4.3 1.9-4.3 4.3 0 .3 0 .7.1 1H20.2c.1-.3.1-.6.1-1 0-2.4-1.9-4.3-4.3-4.3h-2.4V139z"/>
    <path class="st14" d="M18.6 167.1c0 .9-.4 1.6-1.1 2.1v.6h87v-.6c-.7-.5-1.1-1.2-1.1-2.1 0-1.4 1.1-2.6 2.6-2.6h3.8v-27.2h-98v27.2H16c1.4 0 2.6 1.2 2.6 2.6zm-5.9-28.9h96.2v25.5H106c-1.9 0-3.4 1.5-3.4 3.4 0 .7.2 1.3.5 1.8H18.9c.3-.5.5-1.2.5-1.8 0-1.9-1.5-3.4-3.4-3.4h-3.3v-25.5z"/>
    <path class="st15" d="M11 165.4h5c.9 0 1.7.8 1.7 1.7 0 .7-.4 1.3-1.1 1.6v2h88.7v-2c-.6-.2-1.1-.9-1.1-1.6 0-.9.8-1.7 1.7-1.7h4.6v-28.9H11v28.9zm.8-28.1h97.9v27.2H106c-1.4 0-2.6 1.1-2.6 2.6 0 .9.4 1.6 1.1 2.1v.6h-87v-.6c.7-.5 1.1-1.2 1.1-2.1 0-1.4-1.1-2.6-2.6-2.6h-4.2v-27.2z"/>
    <path class="st16" d="M111.5 166v-30.2c0-.1-.1-.2-.2-.2H10.4c-.1 0-.2.1-.2.2V166c0 .1.1.2.2.2H16c.5 0 .9.4.9.9s-.4.9-.9.9c-.1 0-.2.1-.2.2v3.1c0 .1.1.2.2.2h90c.1 0 .2-.1.2-.2v-3.1c0-.1-.1-.2-.2-.2-.5 0-.9-.4-.9-.9s.4-.9.9-.9h5.3c.1 0 .2-.1.2-.2zm-.9-.6H106c-.9 0-1.7.8-1.7 1.7 0 .7.4 1.3 1.1 1.6v2H16.6v-2c.6-.2 1.1-.9 1.1-1.6 0-.9-.8-1.7-1.7-1.7h-5v-28.9h99.6v28.9z"/>
    <path class="st17" d="M112.3 166v-30.2c0-.6-.5-1.1-1.1-1.1H10.4c-.6 0-1.1.5-1.1 1.1V166c0 .6.5 1.1 1.1 1.1H16c-.6 0-1.1.5-1.1 1.1v3.1c0 .6.5 1.1 1.1 1.1h90c.6 0 1.1-.5 1.1-1.1v-3.1c0-.6-.5-1.1-1.1-1.1h5.3c.5 0 1-.5 1-1.1zm-7.2 1.1c0 .5.4.9.9.9.1 0 .2.1.2.2v3.1c0 .1-.1.2-.2.2H16c-.1 0-.2-.1-.2-.2v-3.1c0-.1.1-.2.2-.2.5 0 .9-.4.9-.9s-.4-.9-.9-.9h-5.6c-.1 0-.2-.1-.2-.2v-30.2c0-.1.1-.2.2-.2h100.9c.1 0 .2.1.2.2V166c0 .1-.1.2-.2.2H106c-.5 0-.9.4-.9.9z"/>
    <path class="st34" d="M110.4 132.2H18.7c-.5 0-1 .4-1 1v27.4c0 .5.4 1 1 1h5.1c-.5 0-1 .4-1 1v2.8c0 .5.4 1 1 1h81.8c.5 0 1-.4 1-1v-2.8c0-.5-.4-1-1-1h4.8c.5 0 1-.4 1-1v-27.4c0-.6-.4-1-1-1zm.7-6.2c.5 0 1-.5 1-1.1V42.7c0-.6-.4-1.1-1-1.1H17.7c-.5 0-1 .5-1 1.1V125c0 .6.4 1.1 1 1.1h93.4z"/>
    <path class="st35" d="M17.8 144.8h92.6m-45.1-.3v16.7m41.4-8.5c.5 0 1-.4 1-1v-3.5c0-.5-.4-1-1-1h-36c-.5 0-1 .4-1 1v3.5c0 .5.4 1 1 1h36z"/>
    <path class="st36" d="M104.3 140c.5 0 1-.4 1-1v-.8c0-.5-.4-1-1-1H75.2c-.5 0-1 .4-1 1v.8c0 .5.4 1 1 1h29.1z"/>
    <path class="st35" d="M101.9 157.1c.5 0 1-.4 1-1v-.1c0-.5-.4-1-1-1h-5.2c-.5 0-1 .4-1 1v.1c0 .5.4 1 1 1h5.2z"/>
    <ellipse class="st35" cx="90.6" cy="138.7" rx="5.8" ry="2.9"/>
    <path class="st35" d="M106.7 111.1c.5 0 1-.5 1-1.1V47.7c0-.6-.4-1.1-1-1.1H22.5c-.5 0-1 .5-1 1.1V110c0 .6.4 1.1 1 1.1h84.2z"/>
    <circle class="st35" cx="99.8" cy="117.8" r="2.4"/>
    <path class="st35" d="M94 116.1v3.4m-5.1-3.4v3.4m-4.8-3.4v3.4m19.8-11.3c.5 0 1-.5 1-1.1V49.9c0-.6-.4-1.1-1-1.1H24.6c-.5 0-1 .5-1 1.1v57.2c0 .6.4 1.1 1 1.1h79.3zm-87.2 3.1h95.1"/>
    <path class="st34" d="M84.8 132.2c.5 0 1-.4 1-1V127c0-.5-.4-1-1-1H45.1c-.5 0-1 .4-1 1v4.2c0 .5.4 1 1 1h39.7z"/>
    <path class="st35" d="M32.8 144.8v16.4"/>
    <path class="st36" d="M112.1 59h12.1v4h-12.1z"/>
    <path class="st35" d="M23.9 161.6h81.8"/>
    <path class="st1" d="M354.8 90.4h77.6v65.5h-77.6z"/>
    <path class="st2" d="M354 156.7h79.3V89.5H354v67.2zm.8-66.3h77.6v65.5h-77.6V90.4z"/>
    <path class="st3" d="M434.1 88.7h-81v68.9h81V88.7zm-.8 68H354V89.5h79.3v67.2z"/>
    <path class="st4" d="M352.3 158.4H435V87.8h-82.7v70.6zm.8-69.7h81v68.9h-81V88.7z"/>
    <path class="st5" d="M435.8 87h-84.4v72.3h84.4V87zm-.8 71.4h-82.7V87.8H435v70.6z"/>
    <path class="st6" d="M350.6 160.1h86.1v-74h-86.1v74zm.8-73.1h84.4v72.3h-84.4V87z"/>
    <path class="st7" d="M437.5 85.3h-87.8V161h87.8V85.3zm-.8 74.8h-86.1v-74h86.1v74z"/>
    <path class="st8" d="M348.9 161.9h89.5V84.4h-89.5v77.5zm.8-76.6h87.8V161h-87.8V85.3z"/>
    <path class="st9" d="M439.2 83.6H348v79.1h91.2V83.6zm-.8 78.3h-89.5V84.4h89.5v77.5z"/>
    <path class="st10" d="M347.1 163.6H440V82.7h-92.9v80.9zm.9-80h91.2v79.1H348V83.6z"/>
    <path class="st11" d="M440.9 81.9h-94.7v82.6h94.7V81.9zm-.8 81.7h-92.9V82.7h92.9v80.9z"/>
    <path class="st12" d="M345.4 165.3h96.4V81h-96.4v84.3zm.9-83.4H441v82.6h-94.7V81.9z"/>
    <path class="st13" d="M442.7 80.1h-98.1v86h98.1v-86zm-.9 85.2h-96.4V81h96.4v84.3z"/>
    <path class="st14" d="M343.7 167h99.8V79.3h-99.8V167zm.9-86.9h98.1v86h-98.1v-86z"/>
    <path class="st15" d="M444.4 78.4H342.9v89.4h101.5V78.4zm-.9 88.6h-99.8V79.3h99.8V167z"/>
    <path class="st16" d="M342.2 168.7H445c.1 0 .2-.1.2-.3V77.9c0-.2-.1-.3-.2-.3H342.2c-.1 0-.2.1-.2.3v90.5c0 .2.1.3.2.3zm.7-90.3h101.5v89.4H342.9V78.4z"/>
    <path class="st17" d="M342.2 169.5H445c.6 0 1.1-.5 1.1-1.2V77.9c0-.6-.5-1.2-1.1-1.2H342.2c-.6 0-1.1.5-1.1 1.2v90.5c.1.6.5 1.1 1.1 1.1zm-.2-91.6c0-.2.1-.3.2-.3H445c.1 0 .2.1.2.3v90.5c0 .2-.1.3-.2.3H342.2c-.1 0-.2-.1-.2-.3V77.9z"/>
    <defs>
        <path id="SVGID_3_" d="M439 170.6h-91.7c-.5 0-1 .4-1 1V199c0 .5.4 1 1 1h5.1c-.5 0-1 .4-1 1v2.8c0 .5.4 1 1 1h81.8c.5 0 1-.4 1-1V201c0-.5-.4-1-1-1h4.8c.5 0 1-.4 1-1v-27.4c0-.5-.5-1-1-1z"/>
    </defs>
    <clipPath id="SVGID_4_">
        <use xlink:href="#SVGID_3_" overflow="visible"/>
    </clipPath>
    <path class="st37" d="M439 170.6h-91.7c-.5 0-1 .4-1 1V199c0 .5.4 1 1 1h5.1c-.5 0-1 .4-1 1v2.8c0 .5.4 1 1 1h81.8c.5 0 1-.4 1-1V201c0-.5-.4-1-1-1h4.8c.5 0 1-.4 1-1v-27.4c0-.5-.5-1-1-1z"/>
    <path class="st38" d="M439 170.6h-91.7c-.5 0-1 .4-1 1V199c0 .5.4 1 1 1h5.1c-.5 0-1 .4-1 1v2.8c0 .5.4 1 1 1h81.8c.5 0 1-.4 1-1V201c0-.5-.4-1-1-1h4.8c.5 0 1-.4 1-1v-27.4c0-.5-.5-1-1-1z"/>
    <path class="st39" d="M439 170.6h-91.7c-.5 0-1 .4-1 1V199c0 .5.4 1 1 1h5.1c-.5 0-1 .4-1 1v2.8c0 .5.4 1 1 1h81.8c.5 0 1-.4 1-1V201c0-.5-.4-1-1-1h4.8c.5 0 1-.4 1-1v-27.4c0-.5-.5-1-1-1z"/>
    <path class="st40" d="M439 170.6h-91.7c-.5 0-1 .4-1 1V199c0 .5.4 1 1 1h5.1c-.5 0-1 .4-1 1v2.8c0 .5.4 1 1 1h81.8c.5 0 1-.4 1-1V201c0-.5-.4-1-1-1h4.8c.5 0 1-.4 1-1v-27.4c0-.5-.5-1-1-1z"/>
    <path class="st41" d="M439 170.6h-91.7c-.5 0-1 .4-1 1V199c0 .5.4 1 1 1h5.1c-.5 0-1 .4-1 1v2.8c0 .5.4 1 1 1h81.8c.5 0 1-.4 1-1V201c0-.5-.4-1-1-1h4.8c.5 0 1-.4 1-1v-27.4c0-.5-.5-1-1-1z"/>
    <path class="st42" d="M439 170.6h-91.7c-.5 0-1 .4-1 1V199c0 .5.4 1 1 1h5.1c-.5 0-1 .4-1 1v2.8c0 .5.4 1 1 1h81.8c.5 0 1-.4 1-1V201c0-.5-.4-1-1-1h4.8c.5 0 1-.4 1-1v-27.4c0-.5-.5-1-1-1z"/>
    <path class="st43" d="M439 170.6h-91.7c-.5 0-1 .4-1 1V199c0 .5.4 1 1 1h5.1c-.5 0-1 .4-1 1v2.8c0 .5.4 1 1 1h81.8c.5 0 1-.4 1-1V201c0-.5-.4-1-1-1h4.8c.5 0 1-.4 1-1v-27.4c0-.5-.5-1-1-1z"/>
    <path class="st44" d="M439 170.6h-91.7c-.5 0-1 .4-1 1V199c0 .5.4 1 1 1h5.1c-.5 0-1 .4-1 1v2.8c0 .5.4 1 1 1h81.8c.5 0 1-.4 1-1V201c0-.5-.4-1-1-1h4.8c.5 0 1-.4 1-1v-27.4c0-.5-.5-1-1-1z"/>
    <path class="st45" d="M439 170.6h-91.7c-.5 0-1 .4-1 1V199c0 .5.4 1 1 1h5.1c-.5 0-1 .4-1 1v2.8c0 .5.4 1 1 1h81.8c.5 0 1-.4 1-1V201c0-.5-.4-1-1-1h4.8c.5 0 1-.4 1-1v-27.4c0-.5-.5-1-1-1z"/>
    <path class="st46" d="M439 170.6h-91.7c-.5 0-1 .4-1 1V199c0 .5.4 1 1 1h5.1c-.5 0-1 .4-1 1v2.8c0 .5.4 1 1 1h81.8c.5 0 1-.4 1-1V201c0-.5-.4-1-1-1h4.8c.5 0 1-.4 1-1v-27.4c0-.5-.5-1-1-1z"/>
    <path class="st47" d="M439 170.6h-91.7c-.5 0-1 .4-1 1V199c0 .5.4 1 1 1h5.1c-.5 0-1 .4-1 1v2.8c0 .5.4 1 1 1h81.8c.5 0 1-.4 1-1V201c0-.5-.4-1-1-1h4.8c.5 0 1-.4 1-1v-27.4c0-.5-.5-1-1-1z"/>
    <path class="st48" d="M439 170.6h-91.7c-.5 0-1 .4-1 1V199c0 .5.4 1 1 1h5.1c-.5 0-1 .4-1 1v2.8c0 .5.4 1 1 1h81.8c.5 0 1-.4 1-1V201c0-.5-.4-1-1-1h4.8c.5 0 1-.4 1-1v-27.4c0-.5-.5-1-1-1z"/>
    <path class="st49" d="M439 170.6h-91.7c-.5 0-1 .4-1 1V199c0 .5.4 1 1 1h5.1c-.5 0-1 .4-1 1v2.8c0 .5.4 1 1 1h81.8c.5 0 1-.4 1-1V201c0-.5-.4-1-1-1h4.8c.5 0 1-.4 1-1v-27.4c0-.5-.5-1-1-1z"/>
    <path class="st50" d="M439 170.6h-91.7c-.5 0-1 .4-1 1V199c0 .5.4 1 1 1h5.1c-.5 0-1 .4-1 1v2.8c0 .5.4 1 1 1h81.8c.5 0 1-.4 1-1V201c0-.5-.4-1-1-1h4.8c.5 0 1-.4 1-1v-27.4c0-.5-.5-1-1-1z"/>
    <path class="st51" d="M439 170.6h-91.7c-.5 0-1 .4-1 1V199c0 .5.4 1 1 1h5.1c-.5 0-1 .4-1 1v2.8c0 .5.4 1 1 1h81.8c.5 0 1-.4 1-1V201c0-.5-.4-1-1-1h4.8c.5 0 1-.4 1-1v-27.4c0-.5-.5-1-1-1z"/>
    <path class="st52" d="M439 170.6h-91.7c-.5 0-1 .4-1 1V199c0 .5.4 1 1 1h5.1c-.5 0-1 .4-1 1v2.8c0 .5.4 1 1 1h81.8c.5 0 1-.4 1-1V201c0-.5-.4-1-1-1h4.8c.5 0 1-.4 1-1v-27.4c0-.5-.5-1-1-1z"/>
    <path class="st1" d="M359.8 193.7h68.4c1-1.2 2.1-2.3 3.5-3.1v-7.1H356v6.9c1.4.8 2.7 2 3.8 3.3z"/>
    <path class="st2" d="M359.4 194.6h69.2c1-1.4 2.4-2.6 3.9-3.5v-8.5h-77.4v8.2c1.7 1 3.1 2.2 4.3 3.8zm-3.4-11.1h75.7v7.1c-1.3.8-2.5 1.9-3.5 3.1h-68.4c-1.1-1.3-2.4-2.5-3.8-3.4v-6.8z"/>
    <path class="st3" d="M358.9 195.4H429c1.1-1.6 2.6-2.9 4.3-3.9v-9.8h-79.1v9.6c1.9 1 3.5 2.4 4.7 4.1zm-3.8-12.8h77.4v8.5c-1.5.9-2.8 2.1-3.9 3.5h-69.2c-1.1-1.5-2.6-2.8-4.3-3.7v-8.3z"/>
    <path class="st4" d="M358.4 196.3h71.1c1.1-1.8 2.8-3.3 4.7-4.2v-11.2h-80.8v11c2.1.9 3.9 2.5 5 4.4zm-4.2-14.5h79.1v9.8c-1.7.9-3.2 2.3-4.3 3.9h-70.1c-1.2-1.7-2.8-3.1-4.7-4.1v-9.6z"/>
    <path class="st5" d="M358 197.1h72c1.1-2 2.9-3.6 5.1-4.5V180h-82.5v12.5c2.2.9 4.2 2.5 5.4 4.6zm-4.6-16.2h80.8v11.2c-1.9.9-3.6 2.4-4.7 4.2h-71.1c-1.2-1.9-3-3.5-5.1-4.4v-11z"/>
    <path class="st6" d="M357.4 198h73.1c1.1-2.2 3-3.9 5.4-4.8v-14h-84.2v13.9c2.5.8 4.6 2.6 5.7 4.9zm-4.9-17.9H435v12.6c-2.1.9-3.9 2.5-5.1 4.5h-72c-1.2-2.1-3.1-3.8-5.4-4.6v-12.5z"/>
    <path class="st7" d="M356.9 198.9h74.2c1-2.4 3.1-4.3 5.7-5v-15.5h-85.9v15.4c2.7.6 4.9 2.5 6 5.1zm-5.2-19.7h84.2v14c-2.4.8-4.3 2.5-5.4 4.8h-73.1c-1.1-2.3-3.2-4.1-5.8-4.9v-13.9z"/>
    <path class="st8" d="M356.3 199.7h75.4c.9-2.6 3.2-4.7 6-5.1v-17.1H350v17c2.9.4 5.4 2.4 6.3 5.2zm-5.5-21.4h85.9v15.5c-2.6.7-4.7 2.5-5.7 5h-74.2c-1.1-2.5-3.3-4.5-6.1-5.1v-15.4z"/>
    <path class="st9" d="M355.7 200.6h76.7c.7-2.9 3.1-5 6.2-5.2v-18.7h-89.4v18.7c3.1 0 5.8 2.2 6.5 5.2zm-5.7-23.1h87.6v17.1c-2.8.5-5.1 2.5-6 5.1h-75.4c-.9-2.8-3.4-4.8-6.3-5.2v-17z"/>
    <path class="st10" d="M354.9 201.4H433c.4-3 2.9-5.3 5.9-5.3h.4v-20.4h-91.1v20.4h.7c3.2.1 5.7 2.4 6 5.3zm-5.8-24.8h89.4v18.7c-3 .2-5.5 2.4-6.2 5.2h-76.7c-.7-3-3.4-5.2-6.5-5.3v-18.6z"/>
    <path class="st11" d="M354.1 202.1v.1h79.7v-.1c0-2.8 2.3-5.1 5.1-5.1h1.2v-22.1h-92.8V197h1.6c2.9 0 5.2 2.3 5.2 5.1zm-5.8-26.3h91.1v20.4h-.4c-3.1 0-5.6 2.3-5.9 5.3H355c-.4-3-2.9-5.3-5.9-5.3h-.7v-20.4z"/>
    <path class="st12" d="M353.3 202.1c0 .3 0 .7-.1 1h81.6c-.1-.3-.1-.6-.1-1 0-2.4 1.9-4.3 4.3-4.3h2.1V174h-94.5v23.8h2.4c2.4.1 4.3 2 4.3 4.3zm-5.9-27.2h92.8V197H439c-2.8 0-5.1 2.3-5.1 5.1v.1h-79.7v-.1c0-2.8-2.3-5.1-5.1-5.1h-1.6v-22.1z"/>
    <path class="st13" d="M352.4 202.1c0 .7-.2 1.3-.5 1.8h84.2c-.3-.5-.5-1.2-.5-1.8 0-1.9 1.5-3.4 3.4-3.4h2.9v-25.5h-96.2v25.5h3.3c1.9 0 3.4 1.6 3.4 3.4zm-5.9-28H441v23.8h-2c-2.4 0-4.3 1.9-4.3 4.3 0 .3 0 .7.1 1h-81.6c.1-.3.1-.6.1-1 0-2.4-1.9-4.3-4.3-4.3h-2.4v-23.8z"/>
    <path class="st14" d="M351.6 202.1c0 .9-.4 1.6-1.1 2.1v.6h87v-.6c-.7-.5-1.1-1.2-1.1-2.1 0-1.4 1.1-2.6 2.6-2.6h3.8v-27.2h-97.9v27.2h4.2c1.3.1 2.5 1.2 2.5 2.6zm-5.9-28.9h96.2v25.5H439c-1.9 0-3.4 1.5-3.4 3.4 0 .7.2 1.3.5 1.8h-84.2c.3-.5.5-1.2.5-1.8 0-1.9-1.5-3.4-3.4-3.4h-3.3v-25.5z"/>
    <path class="st15" d="M344 200.4h5c.9 0 1.7.8 1.7 1.7 0 .7-.4 1.3-1.1 1.6v2h88.7v-2c-.6-.2-1.1-.9-1.1-1.6 0-.9.8-1.7 1.7-1.7h4.6v-28.9H344v28.9zm.8-28h97.9v27.2H439c-1.4 0-2.6 1.1-2.6 2.6 0 .9.4 1.6 1.1 2.1v.6h-87v-.6c.7-.5 1.1-1.2 1.1-2.1 0-1.4-1.1-2.6-2.6-2.6h-4.2v-27.2z"/>
    <path class="st16" d="M444.5 201.1v-30.2c0-.1-.1-.2-.2-.2H343.4c-.1 0-.2.1-.2.2v30.2c0 .1.1.2.2.2h5.6c.5 0 .9.4.9.9s-.4.9-.9.9c-.1 0-.2.1-.2.2v3.1c0 .1.1.2.2.2h90c.1 0 .2-.1.2-.2v-3.1c0-.1-.1-.2-.2-.2-.5 0-.9-.4-.9-.9s.4-.9.9-.9h5.3c.1 0 .2-.1.2-.2zm-.9-.7H439c-.9 0-1.7.8-1.7 1.7 0 .7.4 1.3 1.1 1.6v2h-88.7v-2c.6-.2 1.1-.9 1.1-1.6 0-.9-.8-1.7-1.7-1.7h-5v-28.9h99.6v28.9z"/>
    <path class="st17" d="M445.3 201.1v-30.2c0-.6-.5-1.1-1.1-1.1H343.4c-.6 0-1.1.5-1.1 1.1v30.2c0 .6.5 1.1 1.1 1.1h5.6c-.6 0-1.1.5-1.1 1.1v3.1c0 .6.5 1.1 1.1 1.1h90c.6 0 1.1-.5 1.1-1.1v-3.1c0-.6-.5-1.1-1.1-1.1h5.3c.5-.1 1-.5 1-1.1zm-7.2 1c0 .5.4.9.9.9.1 0 .2.1.2.2v3.1c0 .1-.1.2-.2.2h-90c-.1 0-.2-.1-.2-.2v-3.1c0-.1.1-.2.2-.2.5 0 .9-.4.9-.9s-.4-.9-.9-.9h-5.6c-.1 0-.2-.1-.2-.2v-30.2c0-.1.1-.2.2-.2h100.9c.1 0 .2.1.2.2V201c0 .1-.1.2-.2.2H439c-.5.1-.9.5-.9.9z"/>
    <path class="st34" d="M443.4 167.2h-91.7c-.5 0-1 .4-1 1v27.4c0 .5.4 1 1 1h5.1c-.5 0-1 .4-1 1v2.8c0 .5.4 1 1 1h81.8c.5 0 1-.4 1-1v-2.8c0-.5-.4-1-1-1h4.8c.5 0 1-.4 1-1v-27.4c0-.5-.4-1-1-1zm.7-6.1c.5 0 1-.5 1-1.1V77.7c0-.6-.4-1.1-1-1.1h-93.4c-.5 0-1 .5-1 1.1V160c0 .6.4 1.1 1 1.1h93.4z"/>
    <path class="st35" d="M350.8 179.9h92.6m-45.1-.4v16.8m41.4-8.6c.5 0 1-.4 1-1v-3.5c0-.5-.4-1-1-1h-36c-.5 0-1 .4-1 1v3.5c0 .5.4 1 1 1h36z"/>
    <path class="st36" d="M437.3 175.1c.5 0 1-.4 1-1v-.8c0-.5-.4-1-1-1h-29.1c-.5 0-1 .4-1 1v.8c0 .5.4 1 1 1h29.1z"/>
    <path class="st35" d="M434.9 192.2c.5 0 1-.4 1-1v-.1c0-.5-.4-1-1-1h-5.2c-.5 0-1 .4-1 1v.1c0 .5.4 1 1 1h5.2z"/>
    <ellipse class="st35" cx="423.6" cy="173.7" rx="5.8" ry="2.9"/>
    <path class="st35" d="M439.7 146.2c.5 0 1-.5 1-1.1V82.8c0-.6-.4-1.1-1-1.1h-84.2c-.5 0-1 .5-1 1.1v62.4c0 .6.4 1.1 1 1.1h84.2z"/>
    <circle class="st35" cx="432.8" cy="152.9" r="2.4"/>
    <path class="st35" d="M427 151.2v3.4m-5.1-3.4v3.4m-4.8-3.4v3.4m19.8-11.4c.5 0 1-.5 1-1.1V85c0-.6-.4-1.1-1-1.1h-79.4c-.5 0-1 .5-1 1.1v57.2c0 .6.4 1.1 1 1.1h79.4zm-87.2 3.2h95.1"/>
    <path class="st34" d="M417.8 167.2c.5 0 1-.4 1-1V162c0-.5-.4-1-1-1h-39.7c-.5 0-1 .4-1 1v4.2c0 .5.4 1 1 1h39.7z"/>
    <path class="st35" d="M365.8 179.9v16.4m-8.9.3h81.8"/>
    <path class="st36" d="M338.2 182.1h12.1v4h-12.1z"/>
    <path class="st53" d="M351.1 183.8H231.8V60.7H111.9"/>
    <circle class="st54" cx="231.8" cy="122.3" r="16.8"/>
    <path class="st55" d="M266 62.7h180"/>
    <path class="st56" d="M266.9 54.1v-12h-4.5v-1.6h10.8v1.6h-4.5v12h-1.8zm8 0V40.5h1.7v4.9c.8-.9 1.8-1.4 2.9-1.4.7 0 1.4.1 1.9.4.5.3.9.7 1.2 1.2.2.5.3 1.2.3 2.2v6.3h-1.7v-6.3c0-.8-.2-1.4-.5-1.8-.4-.4-.9-.6-1.5-.6-.5 0-1 .1-1.4.4-.4.3-.7.6-.9 1-.2.4-.3 1-.3 1.8V54h-1.7zm17.3-3.2l1.7.2c-.3 1-.8 1.8-1.5 2.4-.7.6-1.7.8-2.8.8-1.4 0-2.6-.4-3.4-1.3-.8-.9-1.3-2.1-1.3-3.7 0-1.7.4-2.9 1.3-3.9.9-.9 2-1.4 3.3-1.4 1.3 0 2.4.5 3.2 1.3.8.9 1.3 2.2 1.3 3.8v.4h-7.4c.1 1.1.4 1.9.9 2.5.6.6 1.2.9 2.1.9.6 0 1.1-.2 1.6-.5.4-.3.8-.8 1-1.5zm-5.5-2.7h5.5c-.1-.8-.3-1.5-.6-1.9-.5-.6-1.2-1-2.1-1-.8 0-1.4.3-1.9.8-.5.6-.8 1.3-.9 2.1zm21.1 4.6c-.6.5-1.2.9-1.8 1.1s-1.2.3-1.9.3c-1.1 0-1.9-.3-2.5-.8-.6-.5-.9-1.2-.9-2 0-.5.1-.9.3-1.3.2-.4.5-.7.9-1l1.2-.6c.3-.1.8-.2 1.5-.3 1.4-.2 2.4-.4 3-.6v-.4c0-.7-.2-1.2-.5-1.4-.4-.4-1.1-.6-1.9-.6-.8 0-1.4.1-1.7.4-.4.3-.7.8-.8 1.5l-1.7-.2c.1-.7.4-1.3.7-1.7.3-.4.8-.8 1.5-1 .6-.2 1.4-.3 2.3-.3.8 0 1.5.1 2.1.3.5.2.9.4 1.2.7.2.3.4.7.5 1.1.1.3.1.8.1 1.5V50c0 1.6 0 2.5.1 3 .1.4.2.8.4 1.2h-1.7c-.2-.5-.3-.9-.4-1.4zm-.1-3.7c-.6.2-1.5.5-2.8.6-.7.1-1.2.2-1.5.3-.3.1-.5.3-.7.5-.2.2-.2.5-.2.8 0 .4.2.8.5 1.1.3.3.8.4 1.5.4s1.2-.1 1.7-.4c.5-.3.9-.7 1.1-1.2.2-.4.3-.9.3-1.7l.1-.4zm4.2 5v-9.9h1.5v1.5c.4-.7.7-1.2 1-1.4.3-.2.7-.3 1.1-.3.6 0 1.1.2 1.7.5l-.6 1.5c-.4-.2-.8-.3-1.2-.3-.4 0-.7.1-1 .3-.3.2-.5.5-.6.9-.2.6-.3 1.2-.3 2v5.2h-1.6zm10-1.5l.2 1.5c-.5.1-.9.1-1.3.1-.6 0-1.1-.1-1.4-.3-.3-.2-.6-.4-.7-.8-.1-.3-.2-1-.2-2v-5.7h-1.2v-1.3h1.2v-2.4l1.7-1v3.4h1.7v1.3h-1.7v5.8c0 .5 0 .8.1.9l.3.3c.1.1.3.1.6.1.2.2.4.2.7.1zm6.9 1.5V40.5h1.7v4.9c.8-.9 1.8-1.4 2.9-1.4.7 0 1.4.1 1.9.4.5.3.9.7 1.2 1.2.2.5.3 1.2.3 2.2v6.3h-1.7v-6.3c0-.8-.2-1.4-.5-1.8-.4-.4-.9-.6-1.5-.6-.5 0-1 .1-1.4.4-.4.3-.7.6-.9 1-.2.4-.3 1-.3 1.8V54h-1.7zm17.1-1.3c-.6.5-1.2.9-1.8 1.1-.6.2-1.2.3-1.9.3-1.1 0-1.9-.3-2.5-.8-.6-.5-.9-1.2-.9-2 0-.5.1-.9.3-1.3.2-.4.5-.7.9-1l1.2-.6c.3-.1.8-.2 1.5-.3 1.4-.2 2.4-.4 3-.6v-.4c0-.7-.2-1.2-.5-1.4-.4-.4-1.1-.6-1.9-.6-.8 0-1.4.1-1.7.4s-.7.8-.8 1.5l-1.7-.2c.1-.7.4-1.3.7-1.7.3-.4.8-.8 1.5-1 .6-.2 1.4-.3 2.3-.3.8 0 1.5.1 2.1.3.5.2.9.4 1.2.7.2.3.4.7.5 1.1.1.3.1.8.1 1.5V50c0 1.6 0 2.5.1 3 .1.4.2.8.4 1.2h-1.7c-.2-.5-.4-.9-.4-1.4zm-.1-3.7c-.6.2-1.5.5-2.8.6-.7.1-1.2.2-1.5.3-.3.1-.5.3-.7.5-.2.2-.2.5-.2.8 0 .4.2.8.5 1.1.3.3.8.4 1.5.4s1.2-.1 1.7-.4c.5-.3.9-.7 1.1-1.2.2-.4.3-.9.3-1.7l.1-.4zm4.2 8.8V44.2h1.5v1.3c.4-.5.8-.9 1.2-1.1.5-.3 1-.4 1.6-.4.8 0 1.6.2 2.2.7.6.4 1.1 1 1.5 1.8.3.8.5 1.7.5 2.6 0 1-.2 1.9-.5 2.7-.4.8-.9 1.4-1.6 1.9-.7.4-1.4.6-2.2.6-.6 0-1.1-.1-1.5-.4-.4-.2-.8-.5-1.1-.9v4.8H350zm1.5-8.7c0 1.3.3 2.2.8 2.8.5.6 1.1.9 1.9.9.7 0 1.4-.3 1.9-.9.5-.6.8-1.6.8-2.9 0-1.3-.3-2.2-.8-2.8-.5-.6-1.1-.9-1.9-.9-.7 0-1.4.3-1.9 1-.5.6-.8 1.5-.8 2.8zm9.1 8.7V44.2h1.5v1.3c.4-.5.8-.9 1.2-1.1.5-.3 1-.4 1.6-.4.8 0 1.6.2 2.2.7.6.4 1.1 1 1.5 1.8.3.8.5 1.7.5 2.6 0 1-.2 1.9-.5 2.7-.4.8-.9 1.4-1.6 1.9-.7.4-1.4.6-2.2.6-.6 0-1.1-.1-1.5-.4-.4-.2-.8-.5-1.1-.9v4.8h-1.6zm1.5-8.7c0 1.3.3 2.2.8 2.8.5.6 1.1.9 1.9.9.7 0 1.4-.3 1.9-.9s.8-1.6.8-2.9c0-1.3-.3-2.2-.8-2.8-.5-.6-1.1-.9-1.9-.9-.7 0-1.4.3-1.9 1-.6.6-.8 1.5-.8 2.8zm15.8 1.7l1.7.2c-.3 1-.8 1.8-1.5 2.4-.7.6-1.7.8-2.8.8-1.4 0-2.6-.4-3.4-1.3-.8-.9-1.3-2.1-1.3-3.7 0-1.7.4-2.9 1.3-3.9.9-.9 2-1.4 3.3-1.4 1.3 0 2.4.5 3.2 1.3.8.9 1.3 2.2 1.3 3.8v.4h-7.4c.1 1.1.4 1.9.9 2.5.6.6 1.2.9 2.1.9.6 0 1.1-.2 1.6-.5.4-.3.8-.8 1-1.5zm-5.5-2.7h5.5c-.1-.8-.3-1.5-.6-1.9-.5-.6-1.2-1-2.1-1-.8 0-1.4.3-1.9.8-.5.6-.8 1.3-.9 2.1zm9.4 5.9v-9.9h1.5v1.4c.7-1.1 1.8-1.6 3.1-1.6.6 0 1.1.1 1.6.3.5.2.9.5 1.1.8.2.3.4.8.5 1.2.1.3.1.9.1 1.6V54H388v-6c0-.7-.1-1.2-.2-1.5-.1-.3-.4-.6-.7-.8-.3-.2-.7-.3-1.2-.3-.7 0-1.3.2-1.8.7-.5.5-.8 1.3-.8 2.6v5.4h-1.5zm9.9-3l1.7-.2c.1.7.4 1.2.8 1.5.4.4 1 .5 1.8.5s1.3-.2 1.7-.5c.4-.3.6-.7.6-1.1 0-.4-.2-.7-.5-.9-.2-.1-.8-.3-1.7-.6-1.2-.3-2.1-.6-2.5-.8-.5-.2-.8-.5-1.1-.9-.2-.4-.4-.8-.4-1.3 0-.4.1-.8.3-1.2.2-.4.5-.7.8-.9.3-.2.6-.4 1.1-.5.4-.1.9-.2 1.4-.2.8 0 1.5.1 2 .3.6.2 1 .5 1.3.9.3.4.5.9.6 1.5l-1.6.2c-.1-.5-.3-.9-.6-1.2-.4-.3-.9-.4-1.5-.4-.8 0-1.3.1-1.6.4-.3.3-.5.6-.5.9 0 .2.1.4.2.6.1.2.3.3.6.4.2.1.7.2 1.5.4 1.2.3 2 .6 2.5.8.5.2.8.5 1.1.9.3.4.4.9.4 1.4 0 .6-.2 1.1-.5 1.6s-.8.9-1.4 1.1c-.6.3-1.3.4-2.1.4-1.3 0-2.3-.3-2.9-.8-.9-.4-1.3-1.2-1.5-2.3zm15.5 3V40.5h1.7v4.9c.8-.9 1.8-1.4 2.9-1.4.7 0 1.4.1 1.9.4.5.3.9.7 1.2 1.2.2.5.3 1.2.3 2.2v6.3h-1.7v-6.3c0-.8-.2-1.4-.5-1.8-.4-.4-.9-.6-1.5-.6-.5 0-1 .1-1.4.4-.4.3-.7.6-.9 1-.2.4-.3 1-.3 1.8V54h-1.7zm17.3-3.2l1.7.2c-.3 1-.8 1.8-1.5 2.4-.7.6-1.7.8-2.8.8-1.4 0-2.6-.4-3.4-1.3-.8-.9-1.3-2.1-1.3-3.7 0-1.7.4-2.9 1.3-3.9.9-.9 2-1.4 3.3-1.4 1.3 0 2.4.5 3.2 1.3.8.9 1.3 2.2 1.3 3.8v.4h-7.4c.1 1.1.4 1.9.9 2.5.6.6 1.2.9 2.1.9.6 0 1.1-.2 1.6-.5.4-.3.8-.8 1-1.5zm-5.5-2.7h5.5c-.1-.8-.3-1.5-.6-1.9-.5-.6-1.2-1-2.1-1-.8 0-1.4.3-1.9.8-.6.6-.9 1.3-.9 2.1zm9.3 5.9v-9.9h1.5v1.5c.4-.7.7-1.2 1-1.4.3-.2.7-.3 1.1-.3.6 0 1.1.2 1.7.5L433 46c-.4-.2-.8-.3-1.2-.3-.4 0-.7.1-1 .3-.3.2-.5.5-.6.9-.2.6-.3 1.2-.3 2v5.2h-1.6zm13.1-3.2l1.7.2c-.3 1-.8 1.8-1.5 2.4-.7.6-1.7.8-2.8.8-1.4 0-2.6-.4-3.4-1.3-.8-.9-1.3-2.1-1.3-3.7 0-1.7.4-2.9 1.3-3.9.9-.9 2-1.4 3.3-1.4 1.3 0 2.4.5 3.2 1.3.8.9 1.3 2.2 1.3 3.8v.4h-7.4c.1 1.1.4 1.9.9 2.5.6.6 1.2.9 2.1.9.6 0 1.1-.2 1.6-.5.4-.3.8-.8 1-1.5zm-5.5-2.7h5.5c-.1-.8-.3-1.5-.6-1.9-.5-.6-1.2-1-2.1-1-.8 0-1.4.3-1.9.8-.5.6-.8 1.3-.9 2.1z"/>
    <path class="st57" d="M14.5 193.1v7c0 .6.1.9.2 1.1.1.2.5.3.9.3h.1v.4h-3.2v-.4h.1c.5 0 .8-.1.9-.3s.2-.6.2-1.1v-7c0-.6-.1-.9-.2-1.1s-.5-.3-.9-.3h-.1v-.4H15l4 7.6 3.7-7.6h2.5v.4h-.1c-.5 0-.8.1-.9.3-.1.2-.2.6-.2 1.1v6.7c0 .8.1 1.2.2 1.4.1.2.5.3.9.3h.1v.4h-3.8v-.4h.1c.5 0 .8-.1 1-.3.2-.2.2-.6.2-1.1v-7.7l-4.1 8.5-4.1-7.8zm15.4-1.3h-1.1c-.8 0-1.4.1-1.7.3-.3.2-.5.6-.6 1.3v.1h-.6l.3-2.5c1.2.1 2.4.2 3.7.2h1.4c1.3 0 2.5-.1 3.7-.2l.3 2.5h-.5v-.1c-.1-.6-.3-1.1-.6-1.3-.3-.2-.9-.3-1.7-.3h-1.1v8.3c0 .6.1 1 .3 1.1.2.2.5.3 1.1.3h.1v.4h-4.4v-.4h.1c.6 0 .9-.1 1.1-.3.2-.2.3-.6.3-1.1v-8.3zm8.3 6.8l-.6 1.6c-.2.4-.3.7-.3.8 0 .3.2.4.7.5h.1v.4h-2.6v-.4h.1c.3 0 .5-.1.7-.3.2-.2.4-.6.6-1.1l3.7-9.1h.4l3.9 9.1c.2.6.4.9.6 1.1.1.2.3.3.5.3h.1v.4H43v-.4h.1c.3 0 .5 0 .6-.1.1-.1.1-.2.1-.3 0-.1-.1-.5-.3-1l-.7-1.5h-4.6zm.2-.5h4.2l-2.1-5-2.1 5z"/>
    <path class="st57" d="M48.8 198.6l-.6 1.6c-.2.4-.3.7-.3.8 0 .3.2.4.7.5h.1v.4h-2.6v-.4h.1c.3 0 .5-.1.7-.3.2-.2.4-.6.6-1.1l3.7-9.1h.4l3.9 9.1c.2.6.4.9.6 1.1.1.2.3.3.5.3h.1v.4h-3.1v-.4h.1c.3 0 .5 0 .6-.1s.1-.2.1-.3c0-.1-.1-.5-.3-1l-.7-1.5h-4.6zm.2-.5h4.2l-2.1-5-2.1 5zm19.4 2.9v.7c-.9.3-1.7.5-2.6.5-1.2 0-2.1-.4-2.8-1.1-.7-.7-1.1-1.6-1.1-2.8 0-1.2.4-2.2 1.2-3 .8-.8 1.8-1.2 3-1.2 1 0 1.8.3 2.5.9l-1 1c-.6-.9-1.3-1.4-2.1-1.4-.7 0-1.2.3-1.6.9-.4.6-.6 1.4-.6 2.4 0 1.1.3 2 .8 2.6.5.6 1.2.9 2.1.9.9 0 1.6-.1 2.2-.4zm5.9-.4c-.4.5-.8.9-1.3 1.2-.4.3-.9.4-1.4.4-.5 0-.9-.2-1.3-.5-.3-.3-.5-.8-.5-1.3 0-.6.3-1.1.8-1.5.5-.4 1.4-.8 2.6-1.1l.9-.3v-1.1c0-.5 0-.8-.1-1-.1-.2-.2-.3-.4-.5-.3-.2-.6-.3-1-.3s-.7.1-.9.3c-.2.2-.3.4-.3.8v.3l-1.5.5v-.2c0-.5.3-1.1.9-1.6.6-.5 1.4-.7 2.3-.7.8 0 1.3.2 1.7.5.3.3.5.8.5 1.5v3.2c0 .8.1 1.4.2 1.7.1.3.4.4.9.4h.4v.4c-.4.2-.9.4-1.3.4s-.7-.1-.9-.4c-.1-.2-.3-.6-.3-1.1zm-.1-2.7l-.4.1c-1.1.3-1.8.6-2.1.9-.3.3-.5.6-.5 1.1 0 .3.1.6.3.9.2.2.5.4.8.4.5 0 1-.2 1.4-.7.3-.3.4-.7.4-1.3v-1.4zm5.9 4c.2-.2.3-.5.3-.8 0-.3-.1-.5-.3-.7-.2-.2-.5-.3-.8-.3-.3 0-.5.1-.8.3-.2.2-.3.5-.3.7 0 .3.1.5.3.8.2.2.5.3.8.3.4.1.6 0 .8-.3zm8-9.2v-.4l3.4-1.3v9.4c0 .5.1.7.4.9.3.1.8.2 1.7.2v.4h-5.5v-.4c.9 0 1.5-.1 1.7-.2.3-.1.4-.4.4-.9v-8.1l-2.1.4zm9.4 8.9c.2.1.4.1.7.1 1.2 0 2.1-.4 2.9-1.2.4-.4.8-1 1-1.8.3-.8.4-1.6.4-2.4 0-.2 0-.5-.1-.8-.3.7-.7 1.3-1.3 1.7-.6.4-1.2.6-1.9.6-.8 0-1.5-.3-2.1-.9-.5-.6-.8-1.4-.8-2.3 0-1 .4-1.9 1.1-2.6.7-.7 1.6-1.1 2.6-1.1 1.1 0 2.1.5 2.8 1.4.7.9 1.1 2.2 1.1 3.7 0 1.8-.5 3.2-1.6 4.4-1 1.2-2.4 1.7-3.9 1.7-.3 0-.6 0-.9-.1v-.4zm2.2-10.1c-.6 0-1.2.3-1.5.8-.4.5-.6 1.2-.6 2s.2 1.5.6 2c.4.5.9.8 1.6.8.7 0 1.3-.2 1.7-.7.4-.5.6-1.1.6-1.9 0-.8-.2-1.5-.7-2-.5-.7-1-1-1.7-1zm7.1 10.1c.2.1.4.1.7.1 1.2 0 2.1-.4 2.9-1.2.4-.4.8-1 1-1.8.3-.8.4-1.6.4-2.4 0-.2 0-.5-.1-.8-.3.7-.7 1.3-1.3 1.7-.6.4-1.2.6-1.9.6-.8 0-1.5-.3-2.1-.9-.5-.6-.8-1.4-.8-2.3 0-1 .4-1.9 1.1-2.6.7-.7 1.6-1.1 2.6-1.1 1.1 0 2.1.5 2.8 1.4.7.9 1.1 2.2 1.1 3.7 0 1.8-.5 3.2-1.6 4.4-1 1.2-2.4 1.7-3.9 1.7-.3 0-.6 0-.9-.1v-.4zm2.2-10.1c-.6 0-1.2.3-1.5.8-.4.5-.6 1.2-.6 2s.2 1.5.6 2c.4.5.9.8 1.6.8.7 0 1.3-.2 1.7-.7.4-.5.6-1.1.6-1.9 0-.8-.2-1.5-.7-2-.4-.7-1-1-1.7-1zm7.9 10.4c.5-2.3 1.9-5.4 4.4-9.3h-6v-1.3h7.1v.4c-1.1 1.8-2 3.5-2.6 5-.6 1.5-1 3.3-1.3 5.2h-1.6zm-1.1-191.8h.6c.3 1.6.9 2.8 1.7 3.5.8.7 1.7 1.1 2.7 1.1 1 0 1.7-.3 2.1-.8.4-.5.6-1 .6-1.6 0-.7-.2-1.2-.6-1.6-.3-.3-.9-.6-1.7-1.1l-1.5-.6c-1.4-.7-2.4-1.4-2.9-2.1-.6-.7-.9-1.5-.9-2.5 0-1.1.4-2.1 1.1-3s1.9-1.4 3.5-1.4c.8 0 1.6.1 2.3.4.7.2 1.2.4 1.3.4.2 0 .4-.1.5-.2s.2-.3.2-.5h.7v4.8h-.6c-.3-1.1-.8-2.1-1.5-2.9-.7-.8-1.6-1.2-2.6-1.2-.7 0-1.3.2-1.7.6-.4.4-.6.9-.6 1.5 0 .7.2 1.2.6 1.5.4.3 1.3.9 2.6 1.5l1.6.8c.7.4 1.3.8 1.7 1.2.8.8 1.2 1.8 1.2 3 0 1.1-.4 2.1-1.3 3.1s-2.2 1.5-4.1 1.5c-.4 0-.9 0-1.3-.1s-.9-.2-1.3-.4l-.4-.2c-.1 0-.2 0-.3-.1h-.2c-.2 0-.4.1-.5.2-.1.1-.2.3-.2.5h-.6v-5.3zm11.7 4.5c.4-.1.6-.2.8-.3.2-.2.3-.5.3-1V6.8c0-.4-.1-.7-.2-.9-.1-.2-.4-.3-.9-.3v-.5h4.2v8.3c0 .5.1.8.2.9.1.1.4.2.8.3v.5h-5.2v-.5zm1.5-14c.3-.3.7-.5 1.2-.5s.9.2 1.2.5c.3.3.5.7.5 1.2s-.2.9-.5 1.2c-.3.3-.7.5-1.2.5s-.9-.2-1.2-.5c-.3-.3-.5-.7-.5-1.2s.1-.9.5-1.2zm4.6 14c.4-.1.7-.1.8-.3.2-.2.4-.5.4-1.1V6.8c0-.4-.1-.7-.2-.9-.2-.2-.5-.3-.9-.3v-.5h4.1v1.6c.4-.5.7-.9 1.1-1.1.6-.5 1.3-.7 2.1-.7.9 0 1.5.2 2 .6.3.2.5.6.8 1.2h.1c.4-.5.8-.9 1.2-1.1.6-.4 1.2-.6 2-.6s1.4.2 2 .7c.6.5.9 1.3.9 2.3v5.5c0 .5.1.8.2 1 .2.1.4.2.9.3v.5h-5.2v-.5c.4-.1.7-.2.8-.3.2-.1.2-.4.2-.9V8.1c0-.6-.1-1-.3-1.3-.2-.3-.5-.5-1-.5-.4 0-.8.2-1.2.5-.4.3-.6.6-.6.7v5.8c0 .5.1.8.2.9.1.1.4.2.8.3v.5h-5.1v-.5c.4 0 .7-.1.8-.3.2-.1.2-.5.2-.9V8.1c0-.6-.1-1-.2-1.3-.2-.3-.5-.5-1-.5-.4 0-.9.2-1.2.6-.4.4-.6.6-.6.7v5.8c0 .5.1.8.2.9.1.1.4.2.8.3v.5h-5.2v-.5zm18.3 4.5c.5 0 .8-.2 1-.3.2-.2.3-.5.3-.9V6.8c0-.4-.1-.7-.2-.9-.2-.2-.5-.3-.9-.3v-.5h4.2v1.5c.3-.5.6-.9.9-1.1.5-.4 1.2-.6 1.9-.6 1.1 0 2.1.4 2.8 1.3.8.9 1.1 2.2 1.1 3.9 0 1.6-.4 2.9-1.2 4-.8 1-1.8 1.6-2.9 1.6-.6 0-1.2-.2-1.7-.5-.3-.2-.6-.4-.9-.8v3.2c0 .6.2 1 .4 1.2.2.2.7.3 1.2.4v.4h-6v-.5zm7.6-6.4c.1-.6.2-1.4.2-2.5 0-1.3-.1-2.3-.3-3-.2-.7-.7-1.1-1.4-1.1-.5 0-.9.2-1.2.6-.4.4-.5.7-.5.9V13c0 .2.2.5.5.8.3.3.7.5 1.2.5.7 0 1.2-.5 1.5-1.6zm4.4 1.9c.4-.1.7-.2.8-.4.2-.2.2-.5.2-.9V2.1c0-.4-.1-.7-.2-.9-.2-.1-.4-.3-.9-.3V.4h4.2v12.9c0 .5.1.8.2.9.2.1.4.3.9.4v.5h-5.3v-.5zm7.6-8.4c.9-.9 2-1.4 3.2-1.4.7 0 1.4.2 2 .6.6.4 1.1.9 1.5 1.6.3.5.4 1.2.5 2 0 .4.1.7.1.9h-5.6c.1.9.2 1.6.4 2.3.4 1.2 1.2 1.8 2.3 1.8.5 0 1-.2 1.5-.5.3-.2.6-.5 1-1l.5.3c-.7 1.1-1.5 1.9-2.4 2.3-.6.3-1.2.4-2 .4-1.1 0-2.1-.4-3-1.3-.9-.8-1.4-2.2-1.4-4.1.1-1.6.5-2.9 1.4-3.9zm4.7 2.8c0-1.3-.1-2.2-.3-2.7-.2-.5-.6-.8-1.1-.8-.6 0-1 .3-1.2.9-.2.6-.3 1.5-.4 2.6h3zm9 5.6c.8 0 1.3-.2 1.6-.5.2-.3.3-.7.3-1.3V2.5c-.7-.7-1.1-1.2-1.2-1.3l-.6-.3V.4h4.6l7.5 9.2h.1V3.1c0-.7-.1-1.3-.4-1.6-.3-.3-.8-.5-1.6-.6V.4h4.7V1c-.7.1-1.1.3-1.4.5-.2.2-.3.6-.3 1.3v12.9h-.6L188.3 4h-.1v8.6c0 .7.1 1.1.3 1.4.3.5.9.7 1.8.7v.6h-4.9v-.7zm17.3-8.4c.9-.9 2-1.4 3.2-1.4.7 0 1.4.2 2 .6.6.4 1.1.9 1.5 1.6.3.5.4 1.2.5 2 0 .4.1.7.1.9h-5.6c.1.9.2 1.6.4 2.3.4 1.2 1.2 1.8 2.3 1.8.5 0 1-.2 1.5-.5.3-.2.6-.5 1-1l.5.3c-.7 1.1-1.5 1.9-2.4 2.3-.6.3-1.2.4-2 .4-1.1 0-2.1-.4-3-1.3-.9-.8-1.4-2.2-1.4-4.1 0-1.6.5-2.9 1.4-3.9zm4.7 2.8c0-1.3-.1-2.2-.3-2.7-.2-.5-.6-.8-1.1-.8-.6 0-1 .3-1.2.9-.2.6-.3 1.5-.4 2.6h3zm3.6-3v-.6c.2-.2.4-.4.7-.6.4-.3.7-.7 1.1-1.1.7-.7 1.3-1.5 1.8-2.3h.6v3.7h2.1v1H215v6.6c0 .3 0 .6.1.8.1.3.4.5.7.5.3 0 .5-.1.7-.3.2-.2.4-.5.6-.8l.5.3c-.3.6-.6 1.1-.9 1.5-.6.7-1.4 1-2.3 1-.5 0-1-.1-1.3-.3-.7-.4-1.1-1-1.1-2V6h-1.2zm11.5 8.6c.5 0 1-.3 1.3-.7.2-.3.5-.9.9-1.8l4.8-12h.6l4.9 11.5c.5 1.3 1 2.1 1.2 2.5.3.4.7.6 1.2.5v.6h-7.1v-.6c.7 0 1.2-.1 1.4-.2.2-.1.3-.3.3-.7 0-.2-.1-.4-.2-.8-.1-.2-.2-.5-.3-.8l-.6-1.3H226c-.3.9-.5 1.4-.6 1.7-.2.6-.3 1-.3 1.2 0 .3.2.5.6.7.2.1.6.1 1.1.1v.6h-4.5v-.5zm8.2-4.6l-2.1-5.1h-.2l-1.9 5.1h4.2zm7.6 4.6c.4 0 .7-.1.9-.3.2-.1.3-.4.3-.9V6.8c0-.4-.1-.7-.2-.9-.2-.2-.5-.3-.9-.3v-.5h4.2v1.8c.5-.6.9-1.1 1.4-1.4.5-.4 1-.5 1.6-.5.4 0 .9.1 1.2.4.4.3.5.7.5 1.3 0 .4-.1.8-.4 1.1-.3.3-.6.4-1 .4-.5 0-.9-.2-1.2-.6-.3-.4-.6-.6-.7-.6-.3 0-.6.2-.9.5-.3.4-.4.9-.4 1.5v4.2c0 .7.1 1.2.3 1.3.2.2.6.3 1.2.4v.5h-5.8v-.8zm9.7-8.6v-.6c.2-.2.4-.4.7-.6.4-.3.7-.7 1.1-1.1.7-.7 1.3-1.5 1.8-2.3h.6v3.7h2.1v1H252v6.6c0 .3 0 .6.1.8.1.3.4.5.7.5.3 0 .5-.1.7-.3.2-.2.4-.5.6-.8l.5.3c-.3.6-.6 1.1-.9 1.5-.6.7-1.4 1-2.3 1-.5 0-1-.1-1.3-.3-.7-.4-1.1-1-1.1-2V6h-1.2zm12.7 8.6c.6 0 1-.1 1.2-.2.4-.2.6-.6.6-1.2V2.4c0-.6-.2-1-.6-1.2-.2-.1-.6-.2-1.2-.3V.4h6.7c2.7 0 4.8.7 6.2 2.2 1.3 1.3 1.9 3.1 1.9 5.3 0 2-.6 3.7-1.9 5-1.5 1.5-3.4 2.3-5.9 2.3h-6.9v-.6zm5.6-.5c.1.2.5.3.9.3 1.3 0 2.3-.5 3.2-1.4.8-.9 1.2-2.7 1.2-5.3 0-1.5-.2-2.9-.7-4C270 1.9 268.8 1 267 1c-.6 0-.9.1-1.1.4-.1.2-.2.5-.2.9V13c.1.6.2.9.4 1.1zm10.2.5c.4-.1.6-.2.8-.3.2-.2.3-.5.3-1V6.8c0-.4-.1-.7-.2-.9-.1-.2-.4-.3-.9-.3v-.5h4.2v8.3c0 .5.1.8.2.9.1.1.4.2.8.3v.5h-5.2v-.5zm1.5-14c.3-.3.7-.5 1.2-.5s.9.2 1.2.5c.3.3.5.7.5 1.2s-.2.9-.5 1.2c-.3.3-.7.5-1.2.5s-.9-.2-1.2-.5c-.3-.3-.5-.7-.5-1.2s.1-.9.5-1.2zm6.2 10.2c1-.6 2.4-1.2 4.5-1.7V7.5c0-.6-.1-1.1-.4-1.4-.3-.3-.8-.5-1.5-.5-.4 0-.7.1-1 .2-.3.1-.4.3-.4.5v.2c0 .1.1.1.1.2l.1.1c.1.1.2.3.2.4.1.1.1.3.1.5 0 .4-.1.7-.4.9-.3.2-.6.3-1 .3s-.8-.1-1.1-.4c0-.1-.2-.5-.2-.9 0-.8.4-1.5 1.2-2 .8-.5 1.8-.7 2.9-.7 1.2 0 2.3.2 3.1.7.8.5 1.2 1.4 1.2 2.7v5.3c0 .2 0 .3.1.4.1.1.2.2.3.2h.2c.1 0 .2-.1.3-.3l.3.5c-.4.5-.9.8-1.4 1-.3.1-.7.2-1 .2-.6 0-1.1-.2-1.4-.6-.2-.2-.3-.5-.4-1-.6.6-1.3 1-2.1 1.3-.5.2-.9.2-1.4.2-.6 0-1.2-.2-1.7-.6-.5-.4-.8-1-.8-1.8.2-1 .7-1.7 1.6-2.3zm3.8 2.8c.2-.1.4-.3.6-.6V9.8c-.6.1-1.1.4-1.5.7-.7.5-1.1 1.2-1.1 2 0 .5.1.8.3 1.1.2.2.5.4.7.4.4-.1.7-.2 1-.4zm6.1 3.1c.3-.3.7-.5 1.3-.6V16c-.4-.2-.7-.3-.9-.5-.3-.3-.5-.7-.5-1.2 0-.6.3-1.1.8-1.6.5-.4 1.1-.7 1.6-.9v-.1c-.7-.3-1.3-.7-1.8-1.3-.5-.6-.7-1.2-.7-2 0-1 .4-1.8 1.2-2.5.8-.6 1.9-1 3.2-1 .5 0 1 0 1.4.1.4.1.8.2 1 .3h2.9v1.2h-1.8c.3.3.5.6.7 1 .2.4.2.8.2 1.2 0 1.4-.7 2.3-2 2.8-.7.3-1.5.4-2.6.4h-.7c-.2 0-.4.1-.7.3-.2.2-.4.4-.4.7 0 .2.1.4.2.5.1.1.3.2.5.2.1 0 .3 0 .7.1h2.2c.8 0 1.5.1 2 .4 1 .4 1.6 1.2 1.6 2.3 0 1.4-.8 2.4-2.3 2.9-.8.3-1.9.4-3.1.4-1 0-1.9-.1-2.6-.3-1.2-.3-1.8-.9-1.8-1.7 0-.3.1-.7.4-1zm2.3 1.9c.5.3 1.2.4 2.1.4.8 0 1.5-.1 2-.2 1-.2 1.5-.7 1.5-1.3 0-.4-.1-.7-.4-.8-.3-.2-.8-.3-1.5-.3h-3.6c-.2.2-.4.3-.5.5-.2.2-.3.5-.3.7-.1.4.2.7.7 1zm.7-8.4c.2.6.6 1 1.2 1 .5 0 .9-.2 1.1-.7.2-.5.3-1.2.3-2.1 0-1-.1-1.7-.3-2.1-.2-.4-.6-.7-1.1-.7-.6 0-.9.2-1.1.7-.2.5-.3 1.2-.3 2.1 0 .8.1 1.4.2 1.8zm7.4 4.4c.4 0 .7-.1.9-.3.2-.1.3-.4.3-.9V6.8c0-.4-.1-.7-.2-.9-.2-.2-.5-.3-.9-.3v-.5h4.2v1.8c.5-.6.9-1.1 1.4-1.4.5-.4 1-.5 1.6-.5.4 0 .9.1 1.2.4.4.3.5.7.5 1.3 0 .4-.1.8-.4 1.1-.3.3-.6.4-1 .4-.5 0-.9-.2-1.2-.6-.3-.4-.6-.6-.7-.6-.3 0-.6.2-.9.5-.3.4-.4.9-.4 1.5v4.2c0 .7.1 1.2.3 1.3.2.2.6.3 1.2.4v.5h-5.8v-.8zm11.3-3.8c1-.6 2.4-1.2 4.5-1.7V7.5c0-.6-.1-1.1-.4-1.4-.3-.3-.8-.5-1.5-.5-.4 0-.7.1-1 .2-.3.1-.4.3-.4.5v.2c0 .1.1.1.1.2l.1.1c.1.1.2.3.2.4.1.1.1.3.1.5 0 .4-.1.7-.4.9-.3.2-.6.3-1 .3s-.8-.1-1.1-.4c-.3-.2-.4-.6-.4-1.1 0-.8.4-1.5 1.2-2 .8-.5 1.8-.7 2.9-.7 1.2 0 2.3.2 3.1.7.8.5 1.2 1.4 1.2 2.7v5.3c0 .2 0 .3.1.4.1.1.2.2.3.2h.2c.1 0 .2-.1.3-.3l.3.5c-.4.5-.9.8-1.4 1-.3.1-.7.2-1 .2-.6 0-1.1-.2-1.4-.6-.2-.2-.3-.5-.4-1-.6.6-1.3 1-2.1 1.3-.5.2-.9.2-1.4.2-.6 0-1.2-.2-1.7-.6-.5-.4-.8-1-.8-1.8.4-.8.9-1.5 1.8-2.1zm3.8 2.8c.2-.1.4-.3.6-.6V9.8c-.6.1-1.1.4-1.5.7-.7.5-1.1 1.2-1.1 2 0 .5.1.8.3 1.1.2.2.5.4.7.4.4-.1.7-.2 1-.4zm5.5 1c.4-.1.7-.1.8-.3.2-.2.4-.5.4-1.1V6.8c0-.4-.1-.7-.2-.9-.2-.2-.5-.3-.9-.3v-.5h4.1v1.6c.4-.5.7-.9 1.1-1.1.6-.5 1.3-.7 2.1-.7.9 0 1.5.2 2 .6.3.2.5.6.8 1.2h.1c.4-.5.8-.9 1.2-1.1.6-.4 1.2-.6 2-.6s1.4.2 2 .7c.6.5.9 1.3.9 2.3v5.5c0 .5.1.8.2 1 .2.1.4.2.9.3v.5h-5.2v-.5c.4-.1.7-.2.8-.3.2-.1.2-.4.2-.9V8.1c0-.6-.1-1-.3-1.3-.2-.3-.5-.5-1-.5-.4 0-.8.2-1.2.5-.4.3-.6.6-.6.7v5.8c0 .5.1.8.2.9.1.1.4.2.8.3v.5H331v-.5c.4 0 .7-.1.8-.3.2-.1.2-.5.2-.9V8.1c0-.6-.1-1-.2-1.3-.2-.3-.5-.5-1-.5-.4 0-.9.2-1.2.6-.4.4-.6.6-.6.7v5.8c0 .5.1.8.2.9.1.1.4.2.8.3v.5h-5.2v-.5z"/>
    <path class="st53" d="M0 24.9h458M0 217.9h458"/>
    <path class="st58" d="M248.8 105l-26 13.4 9.6 2.5-15.5 16 25.6-13.5-7.1-5z"/>
</svg>
